<?xml version="1.0" standalone="no"?>
<!DOCTYPE svg PUBLIC "-//W3C//DTD SVG 20010904//EN"
 "http://www.w3.org/TR/2001/REC-SVG-20010904/DTD/svg10.dtd">
<svg version="1.0" xmlns="http://www.w3.org/2000/svg"
 width="936.000000pt" height="936.000000pt" viewBox="0 0 936.000000 936.000000"
 preserveAspectRatio="xMidYMid meet">
<metadata>
Created by potrace 1.14, written by Peter Selinger 2001-2017
</metadata>
<g transform="translate(0.000000,936.000000) scale(0.100000,-0.100000)"
fill="#000000" stroke="none">
<path d="M2818 9355 c-2 -1 -46 -5 -98 -9 -52 -3 -104 -8 -115 -10 -11 -2 -49
-7 -85 -12 -36 -4 -67 -8 -70 -9 -4 -1 -53 -11 -100 -21 -48 -9 -217 -56 -246
-69 -19 -8 -34 -12 -34 -9 0 3 -9 0 -21 -6 -11 -6 -28 -13 -37 -15 -72 -15
-348 -148 -492 -237 -52 -32 -104 -64 -115 -71 -11 -7 -24 -18 -28 -24 -4 -7
-12 -13 -17 -13 -6 0 -20 -9 -32 -19 -13 -10 -61 -49 -108 -87 -129 -102 -337
-318 -432 -449 -4 -5 -18 -23 -31 -40 -37 -48 -111 -163 -164 -255 -42 -74
-115 -216 -119 -230 0 -3 -5 -16 -11 -30 -18 -41 -36 -85 -38 -90 -1 -3 -5
-12 -8 -20 -11 -24 -88 -263 -92 -285 -2 -11 -11 -51 -19 -88 -9 -37 -18 -80
-21 -95 -3 -15 -7 -38 -10 -52 -3 -14 -8 -52 -11 -85 -3 -33 -10 -89 -14 -125
-8 -67 -5 -451 4 -505 3 -16 8 -54 12 -84 3 -30 8 -64 10 -75 3 -12 8 -34 10
-51 6 -31 31 -149 38 -175 3 -8 11 -40 20 -70 8 -30 18 -66 22 -80 4 -14 11
-30 16 -37 5 -7 7 -17 3 -23 -3 -5 -1 -10 6 -10 7 0 10 -3 7 -6 -5 -5 19 -72
54 -154 6 -14 11 -28 10 -32 -1 -5 3 -8 10 -8 6 0 9 -3 5 -6 -6 -7 123 -264
143 -284 8 -8 29 -43 42 -70 7 -14 15 -27 18 -30 3 -3 22 -27 40 -55 110 -159
331 -402 468 -515 24 -19 60 -50 80 -67 20 -18 42 -33 49 -33 6 0 13 -4 15 -8
5 -13 180 -130 268 -180 68 -38 260 -131 295 -143 22 -8 42 -16 45 -19 5 -5
93 -38 120 -45 8 -2 15 -4 15 -5 0 -1 7 -3 15 -5 8 -3 56 -16 105 -30 74 -20
164 -41 255 -60 17 -3 79 -13 130 -20 107 -15 333 -18 2040 -20 1674 -2 1978
-5 2030 -20 8 -2 26 -6 40 -9 14 -2 43 -9 65 -15 22 -6 42 -10 45 -10 3 0 36
-12 74 -26 260 -98 467 -259 616 -479 49 -73 120 -201 120 -217 0 -4 8 -24 17
-45 9 -22 18 -44 19 -51 1 -6 7 -28 14 -47 30 -92 48 -239 45 -374 -2 -75 -6
-148 -9 -162 -3 -14 -8 -34 -10 -45 -17 -84 -38 -160 -56 -206 -27 -68 -81
-182 -90 -189 -4 -3 -15 -21 -25 -40 -10 -19 -21 -37 -24 -40 -3 -3 -26 -32
-51 -65 -69 -94 -174 -194 -272 -260 -29 -19 -57 -38 -63 -43 -18 -13 -148
-74 -215 -99 -63 -24 -226 -66 -305 -78 -31 -5 -283 -15 -365 -15 -10 0 -27
-31 -49 -92 -57 -154 -126 -302 -210 -448 -30 -52 -58 -97 -61 -100 -3 -3 -11
-17 -19 -32 -8 -16 -18 -28 -23 -28 -4 0 -8 -6 -8 -13 0 -8 -11 -27 -25 -43
-14 -16 -36 -45 -47 -64 -12 -19 -27 -39 -33 -45 -7 -5 -29 -32 -51 -60 -109
-138 -282 -307 -446 -435 -32 -25 -58 -47 -58 -50 0 -7 1289 -4 1390 4 95 6
209 16 235 20 19 3 115 19 125 21 3 1 25 5 50 9 25 5 52 10 60 11 36 8 209 59
250 73 25 9 47 17 50 18 3 0 14 4 25 9 11 4 53 21 92 36 40 16 81 33 90 38 10
5 52 26 93 46 305 151 606 386 825 645 25 30 54 64 64 75 9 11 30 38 47 60 16
22 31 42 34 45 3 3 10 12 15 22 6 9 31 48 58 87 26 39 47 74 47 77 0 4 6 15
14 23 27 31 172 323 181 365 1 6 8 25 14 41 20 47 80 229 85 256 2 13 5 24 6
24 2 0 3 5 24 102 18 85 25 121 40 223 23 157 25 640 3 640 -5 0 -6 4 -2 9 5
9 -1 58 -21 176 -3 17 -12 61 -21 99 -8 37 -17 75 -18 85 -2 9 -4 17 -5 19 -2
1 -4 7 -5 12 -1 6 -3 11 -5 13 -1 1 -3 11 -4 22 -5 31 -71 223 -99 288 -14 31
-24 57 -23 57 5 0 -97 199 -137 270 -96 170 -307 446 -415 544 -13 11 -49 46
-81 76 -32 30 -79 73 -106 95 -26 22 -54 46 -61 53 -7 6 -17 12 -22 12 -6 0
-12 4 -14 8 -5 13 -169 127 -261 181 -89 52 -302 157 -367 180 -19 7 -44 17
-55 21 -23 9 -58 23 -65 25 -3 1 -39 12 -80 25 -41 13 -80 25 -87 26 -7 1 -40
9 -75 18 -35 8 -74 17 -88 20 -14 3 -36 8 -50 11 -14 3 -45 8 -70 11 -25 2
-52 6 -60 9 -8 2 -51 7 -95 11 -44 3 -93 8 -110 10 -16 1 -865 3 -1885 4
-1075 1 -1882 6 -1920 11 -36 6 -76 11 -90 13 -43 6 -155 36 -200 53 -8 4 -17
7 -20 8 -58 20 -186 84 -239 119 -29 20 -55 36 -57 36 -2 0 -13 8 -23 18 -10
9 -38 33 -62 52 -167 138 -312 349 -383 562 -65 194 -79 445 -36 638 11 52 23
106 26 120 3 14 9 29 15 34 5 6 9 15 9 22 0 7 9 33 20 58 11 26 19 47 19 49
-1 1 15 30 35 64 20 34 36 66 36 72 0 6 4 11 8 11 4 0 16 15 27 33 10 17 21
34 24 37 3 3 19 22 35 44 62 82 174 184 290 262 104 70 275 151 328 154 4 1
29 7 55 15 46 13 72 18 153 31 19 4 233 7 475 8 242 1 447 3 455 4 13 2 15 86
13 700 -1 383 -2 702 -2 708 -1 7 -137 11 -445 11 -245 1 -446 0 -448 -2z"/>
<path d="M4191 9350 c-3 -3 -6 -851 -6 -1885 l0 -1880 710 0 710 0 0 1885 0
1885 -703 0 c-387 0 -707 -2 -711 -5z"/>
<path d="M4187 3803 c-2 -5 -3 -262 -2 -572 0 -515 -3 -671 -19 -756 -27 -144
-100 -346 -145 -399 -9 -10 -16 -21 -15 -25 1 -6 -26 -53 -37 -61 -3 -3 -8
-11 -10 -17 -9 -27 -137 -172 -204 -231 -83 -72 -263 -194 -276 -186 -5 3 -9
1 -9 -4 0 -25 -261 -106 -380 -118 -82 -8 -270 -11 -270 -4 0 3 -12 5 -27 4
-75 -3 -278 54 -412 117 -180 84 -381 250 -476 394 -22 33 -43 62 -47 63 -5 2
-8 8 -8 13 0 5 -17 37 -38 71 -20 35 -43 79 -51 98 -23 61 -68 224 -76 275 -4
28 -9 61 -11 75 -9 55 -16 233 -15 375 1 83 2 156 1 163 0 17 0 30 1 170 1 68
-1 125 -3 127 -3 3 -205 6 -268 4 -8 -1 -58 -1 -110 0 -52 0 -102 0 -110 0 -8
0 -109 0 -224 1 -114 0 -210 -1 -213 -3 -2 -3 -20 -1 -39 3 -19 4 -36 4 -39 0
-3 -4 -21 -4 -40 0 -19 4 -37 4 -40 0 -3 -4 -20 -4 -39 0 -19 4 -37 5 -40 3
-3 -3 -61 -5 -130 -4 l-125 2 4 -438 c4 -417 8 -520 20 -588 3 -16 7 -48 9
-70 18 -162 98 -455 168 -612 12 -26 21 -50 21 -53 0 -11 115 -231 160 -305
26 -44 54 -89 60 -100 7 -11 14 -22 17 -25 3 -3 34 -45 70 -95 35 -49 67 -92
70 -95 4 -3 34 -36 67 -75 91 -105 156 -169 306 -300 79 -68 317 -235 336
-235 5 0 11 -3 13 -7 2 -5 19 -17 38 -27 47 -26 234 -120 240 -121 3 -1 19 -7
35 -14 17 -8 39 -17 50 -21 11 -4 36 -15 55 -23 34 -15 141 -50 208 -68 126
-35 134 -37 177 -44 17 -3 38 -8 47 -11 22 -7 55 -13 103 -19 46 -7 80 -13 80
-15 0 -13 474 -19 585 -6 41 4 86 9 100 10 14 1 30 5 35 8 6 3 19 4 29 2 11
-1 25 0 30 4 6 3 16 7 21 8 6 1 26 5 45 8 69 13 237 58 320 87 47 16 90 31 95
33 6 1 27 10 49 19 21 9 40 17 43 17 2 0 30 12 61 27 31 15 59 27 62 28 15 3
144 74 233 126 92 55 269 178 323 225 12 11 45 39 74 64 240 205 460 488 607
780 20 41 36 78 35 83 -1 4 2 7 6 7 4 0 14 17 21 38 8 20 18 40 23 43 5 3 10
16 11 27 1 12 5 22 10 22 4 0 6 4 2 9 -3 5 2 17 11 25 8 9 13 16 10 16 -3 0 3
22 13 49 11 26 33 95 50 152 28 98 33 119 46 187 3 15 8 38 10 52 10 48 13 68
18 101 9 62 18 133 24 194 9 97 10 1015 0 1015 -4 0 -5 5 -1 12 4 6 8 80 8
165 l1 153 -707 0 c-389 0 -709 -3 -711 -7z"/>
</g>
</svg>
