<svg xmlns="http://www.w3.org/2000/svg" xmlns:xlink="http://www.w3.org/1999/xlink" viewBox="0 0 114 51">
  <defs>
    <linearGradient id="a" x1="-237.889" y1="439.143" x2="-236.897" y2="438.143" gradientTransform="matrix(114, 0, 0, -51, 27120, 22396.381)" gradientUnits="userSpaceOnUse">
      <stop offset="0" stop-color="#20c6b7"/>
      <stop offset="1" stop-color="#4d9abf"/>
    </linearGradient>
  </defs>
  <g>
    <rect width="114" height="51" rx="4" fill="url(#a)"/>
    <path d="M31.616,20.024a1.422,1.422,0,0,1,.427.329c.015.015.015.015.029.015h.014l3.276-1.416c.015-.014.029-.029.029-.043a.054.054,0,0,0-.014-.043l-3.063-3.074a.043.043,0,0,0-.028-.014h-.015c-.014,0-.028.014-.028.043l-.67,4.16C31.588,20,31.6,20.024,31.616,20.024Zm-6.794-2.788a1.866,1.866,0,0,1,.285.815c0,.015.014.029.028.043l4.872,2.1h.014c.014,0,.028,0,.028-.014a1.5,1.5,0,0,1,.5-.258c.014,0,.028-.014.028-.043l.8-5.018a.053.053,0,0,0-.014-.043l-3.048-3.074c-.015-.014-.015-.014-.029-.014a.03.03,0,0,0-.028.028l-3.433,5.4A.064.064,0,0,0,24.822,17.236Zm16.637,7.735L36.231,19.71A.043.043,0,0,0,36.2,19.7h-.015l-3.546,1.529c-.015.015-.029.029-.029.043s.014.043.029.043l8.745,3.76H41.4c.014,0,.028,0,.028-.014l.029-.028C41.487,25.029,41.487,24.986,41.459,24.971Zm-.869.858-8.39-3.6h-.014a.051.051,0,0,0-.043.015,1.426,1.426,0,0,1-.968.571.046.046,0,0,0-.043.043l-.9,5.591a.054.054,0,0,0,.014.043,1.439,1.439,0,0,1,.541,1,.038.038,0,0,0,.043.043L35.9,30.605h.014c.014,0,.028,0,.028-.015l4.644-4.675a.053.053,0,0,0,.014-.043A.054.054,0,0,0,40.59,25.829ZM29.48,21.054l-4.587-1.973h-.014c-.014,0-.029.014-.043.028a1.67,1.67,0,0,1-1.41.772,2,2,0,0,1-.271-.028h-.014c-.014,0-.028.014-.043.028l-3.774,5.934a.044.044,0,0,0,0,.057.052.052,0,0,0,.043.014h.014l10.07-4.36c.014-.015.029-.029.029-.043v-.129a1.287,1.287,0,0,1,.028-.243A.073.073,0,0,0,29.48,21.054Zm5.526,10.38-4.458-.929h-.014c-.015,0-.029.014-.043.014a1.544,1.544,0,0,1-.641.486c-.014,0-.029.029-.029.043l-1.068,6.663a.073.073,0,0,0,.029.057h.028c.014,0,.029,0,.029-.014l6.181-6.22a.051.051,0,0,0,.015-.043C35.035,31.448,35.02,31.434,35.006,31.434Zm-6.224-.458a1.467,1.467,0,0,1-.855-1c0-.015-.014-.029-.043-.043L19.623,28.2h-.014c-.015,0-.029.014-.043.028a2.021,2.021,0,0,1-.114.186.044.044,0,0,0,0,.057l7.521,11.038c.014.014.014.014.028.014s.029,0,.029-.014l.455-.457c0-.015.015-.015.015-.029l1.282-8.007C28.81,31.019,28.81,30.991,28.782,30.976Zm-8.988-3.788a.037.037,0,0,0,.043.042l8.19,1.716h.014c.014,0,.028-.014.043-.028a1.431,1.431,0,0,1,1.153-.744.038.038,0,0,0,.043-.043l.883-5.5c0-.015,0-.043-.028-.043a1.512,1.512,0,0,1-.185-.158.047.047,0,0,0-.029-.014h-.014L19.78,26.8c-.029.014-.029.028-.029.057A2.622,2.622,0,0,1,19.794,27.188Zm-3.433,1.386a2.116,2.116,0,0,1-.128-.185c-.014-.015-.029-.029-.043-.029h-.014l-3.533,1.53a.03.03,0,0,0-.028.028.052.052,0,0,0,.014.043l1.724,1.73a.042.042,0,0,0,.028.015c.014,0,.029-.015.043-.029L16.375,28.6A.047.047,0,0,0,16.361,28.574Zm2.336.558c-.014-.014-.028-.029-.043-.029H18.64a1.879,1.879,0,0,1-.783.172,1.929,1.929,0,0,1-.627-.1h-.014c-.015,0-.029.014-.043.029l-2.051,3.231-.014.014a.042.042,0,0,0,0,.057l9.429,9.48a.045.045,0,0,0,.029.014c.014,0,.028,0,.028-.014l1.652-1.673a.042.042,0,0,0,0-.057ZM17.372,25.4c.015.015.029.029.043.029h.014a2.317,2.317,0,0,1,.442-.057,1.876,1.876,0,0,1,.484.071h.014c.015,0,.029-.014.043-.028l3.818-6a.045.045,0,0,0,0-.058,1.69,1.69,0,0,1-.471-1.172,1.812,1.812,0,0,1,.043-.386.073.073,0,0,0-.028-.057C21.289,17.522,17,15.692,17,15.678h-.014c-.014,0-.029,0-.029.014l-3.632,3.66a.045.045,0,0,0,0,.058Zm.413-10.466s4.331,1.859,4.516,1.945h.014c.014,0,.014,0,.028-.014a1.721,1.721,0,0,1,1.069-.386,1.875,1.875,0,0,1,.555.085h.015c.014,0,.028-.014.042-.028L27.542,11a.043.043,0,0,0,0-.058l-2.92-2.931C24.608,8,24.608,8,24.594,8s-.028,0-.028.014l-6.781,6.835a.052.052,0,0,0-.014.043C17.757,14.92,17.771,14.92,17.785,14.934Zm-1.68,11.51c.014,0,.028-.014.042-.029a2.249,2.249,0,0,1,.342-.471.043.043,0,0,0,0-.058c-.042-.057-3.9-5.719-3.9-5.733a.119.119,0,0,0-.042-.029c-.014,0-.029,0-.029.015l-4.5,4.518A.052.052,0,0,0,8,24.7c0,.014.014.028.043.028l8.062,1.716Zm-.371.987a.037.037,0,0,0-.042-.043L8.7,25.915H8.684c-.015,0-.029.014-.043.029s0,.043.014.057l3.12,3.145a.042.042,0,0,0,.028.015h.014l3.875-1.673C15.72,27.459,15.734,27.445,15.734,27.431ZM75.5,22.765h2.275V37.312H75.5Zm-23.28,4.1a3.66,3.66,0,0,0-2.958,1.369l-.071-1.187H47.06V37.3h2.275V30.011a2.2,2.2,0,0,1,2.048-1.257,1.734,1.734,0,0,1,1.365.475,2.077,2.077,0,0,1,.413,1.438V37.3h2.275V30.527C55.408,28.1,54.341,26.869,52.222,26.869Zm9.827,0a4.335,4.335,0,0,0-2.361.671,4.49,4.49,0,0,0-1.649,1.884,6.3,6.3,0,0,0-.583,2.737v.279a5.056,5.056,0,0,0,1.35,3.671,4.673,4.673,0,0,0,3.513,1.383,5.145,5.145,0,0,0,2.29-.5,3.982,3.982,0,0,0,1.621-1.424L65.007,34.38a3.079,3.079,0,0,1-2.546,1.285,2.511,2.511,0,0,1-1.848-.74,3.055,3.055,0,0,1-.839-2.011H66.4v-.921a5.767,5.767,0,0,0-1.123-3.783A4.053,4.053,0,0,0,62.049,26.869Zm2.076,4.356H59.788a3.34,3.34,0,0,1,.739-1.843,2.124,2.124,0,0,1,3-.069,2.852,2.852,0,0,1,.611,1.745v.167Zm7.395,4.1a1.258,1.258,0,0,1-.228-.852V28.754h1.792v-1.7H71.292V24.566H69.017v2.485H67.353v1.7h1.664v5.808c0,1.954.882,2.932,2.631,2.932a5.316,5.316,0,0,0,1.507-.224V35.483a3.175,3.175,0,0,1-.8.1A1.008,1.008,0,0,1,71.52,35.33ZM81.3,27.065h2.275V37.312H81.3Zm15.188,6.952-2.147-6.952H91.884l3.57,10.191-.327.88a2.04,2.04,0,0,1-.7,1.061,2.2,2.2,0,0,1-1.294.321l-.427-.028v1.787a4.094,4.094,0,0,0,1.095.167c1.479,0,2.532-.865,3.157-2.582L101,27.065H98.568ZM88.045,23.491a3.531,3.531,0,0,0-.939,2.639v.935h-1.55v1.7h1.55v8.544h2.276V28.768h2.062v-1.7H89.382v-.908c0-1.13.54-1.689,1.635-1.689a5.153,5.153,0,0,1,.867.07l.057-1.8a5.273,5.273,0,0,0-1.28-.167A3.532,3.532,0,0,0,88.045,23.491Zm-4.466-.935v2.01H81.3v-2.01Z" fill="#fff" fill-rule="evenodd"/>
    <path d="M47,18.709V13.081h1.933a2.322,2.322,0,0,1,1.7.659,2.272,2.272,0,0,1,.669,1.691v.932a2.264,2.264,0,0,1-.669,1.691,2.331,2.331,0,0,1-1.7.655Zm1.129-4.758v3.892h.746a1.174,1.174,0,0,0,.95-.41,1.6,1.6,0,0,0,.344-1.07v-.94a1.592,1.592,0,0,0-.344-1.062,1.171,1.171,0,0,0-.95-.41Zm8.507,2.284H54.305v1.608H57.03v.866H53.177V13.081h3.845v.87H54.305v1.414h2.331Zm3.2.433v2.041H58.711V13.081h2.242a2.216,2.216,0,0,1,1.527.5,1.8,1.8,0,0,1,0,2.6,2.229,2.229,0,0,1-1.527.491Zm0-.87h1.113a.935.935,0,0,0,.715-.257.91.91,0,0,0,.244-.655.956.956,0,0,0-.242-.67.921.921,0,0,0-.717-.265H59.84Zm6.146,2.045h2.5v.866H64.857V13.081h1.129ZM74.427,16.4a2.361,2.361,0,0,1-.655,1.713,2.264,2.264,0,0,1-1.7.676,2.236,2.236,0,0,1-1.689-.676,2.373,2.373,0,0,1-.649-1.713V15.389a2.383,2.383,0,0,1,.647-1.711A2.228,2.228,0,0,1,72.066,13a2.267,2.267,0,0,1,1.7.678,2.362,2.362,0,0,1,.657,1.711ZM73.3,15.381A1.7,1.7,0,0,0,72.97,14.3a1.084,1.084,0,0,0-.9-.422,1.053,1.053,0,0,0-.893.42,1.736,1.736,0,0,0-.317,1.08V16.4a1.749,1.749,0,0,0,.321,1.09,1.057,1.057,0,0,0,.892.422,1.079,1.079,0,0,0,.905-.422A1.738,1.738,0,0,0,73.3,16.4Zm4.765.294h.023l1.23-2.594h1.236L78.621,16.73v1.979H77.5V16.672l-1.9-3.591h1.237Zm6.988,1.565a.653.653,0,0,0-.23-.522,2.326,2.326,0,0,0-.805-.371,4.565,4.565,0,0,1-1.519-.688,1.3,1.3,0,0,1-.514-1.09,1.348,1.348,0,0,1,.589-1.13A2.451,2.451,0,0,1,84.078,13a2.261,2.261,0,0,1,1.512.493,1.474,1.474,0,0,1,.564,1.215l-.008.024H85.052a.823.823,0,0,0-.26-.632,1.04,1.04,0,0,0-.733-.242,1.08,1.08,0,0,0-.7.2.633.633,0,0,0-.248.514.552.552,0,0,0,.265.47,3.646,3.646,0,0,0,.914.388,3.563,3.563,0,0,1,1.411.684,1.424,1.424,0,0,1,.479,1.117,1.34,1.34,0,0,1-.57,1.141,2.493,2.493,0,0,1-1.506.417,2.755,2.755,0,0,1-1.6-.473,1.479,1.479,0,0,1-.664-1.328l.007-.023h1.1a.865.865,0,0,0,.307.736,1.387,1.387,0,0,0,.856.234,1.122,1.122,0,0,0,.7-.19A.609.609,0,0,0,85.052,17.24Zm5.933,1.469V13.081h1.9a2.685,2.685,0,0,1,1.55.387,1.314,1.314,0,0,1,.557,1.155,1.22,1.22,0,0,1-.207.7,1.248,1.248,0,0,1-.6.462,1.193,1.193,0,0,1,.759.464,1.38,1.38,0,0,1,.253.823,1.454,1.454,0,0,1-.533,1.223,2.411,2.411,0,0,1-1.511.416Zm1.129-2.489v1.623h1.04a1.048,1.048,0,0,0,.684-.2.708.708,0,0,0,.236-.578.9.9,0,0,0-.2-.632.823.823,0,0,0-.634-.218Zm0-.781h.812a1.125,1.125,0,0,0,.695-.186.636.636,0,0,0,.244-.541.678.678,0,0,0-.245-.576,1.213,1.213,0,0,0-.733-.185h-.773Zm6.4.236h.023l1.229-2.594H101L99.067,16.73v1.979H97.943V16.672l-1.9-3.591h1.237Z" fill="#f7f8f8" fill-rule="evenodd"/>
  </g>
</svg>
